<?xml version="1.0" standalone="no"?>
<!DOCTYPE svg PUBLIC "-//W3C//DTD SVG 20010904//EN"
 "http://www.w3.org/TR/2001/REC-SVG-20010904/DTD/svg10.dtd">
<svg version="1.0" xmlns="http://www.w3.org/2000/svg"
 width="500.000000pt" height="500.000000pt" viewBox="0 0 500.000000 500.000000"
 preserveAspectRatio="xMidYMid meet">
<metadata>
Created by potrace 1.14, written by Peter Selinger 2001-2017
</metadata>
<g transform="translate(0.000000,500.000000) scale(0.100000,-0.100000)"
fill="#000000" stroke="none">
<path d="M2718 4848 c-3 -8 -34 -14 -89 -16 -58 -3 -86 -8 -92 -18 -5 -9 -25
-14 -52 -14 -33 0 -45 -4 -45 -15 0 -10 -11 -15 -35 -15 -24 0 -35 -5 -35 -15
0 -10 -10 -15 -30 -15 -20 0 -30 -5 -30 -15 0 -10 -10 -15 -30 -15 -19 0 -30
-5 -30 -14 0 -8 -13 -17 -30 -21 -16 -4 -30 -11 -30 -16 0 -5 -7 -9 -15 -9 -8
0 -15 -6 -15 -14 0 -8 -13 -17 -30 -21 -16 -4 -30 -13 -30 -21 0 -8 -9 -14
-20 -14 -11 0 -20 -7 -20 -15 0 -8 -7 -15 -15 -15 -8 0 -15 -7 -15 -15 0 -8
-7 -15 -15 -15 -8 0 -15 -7 -15 -15 0 -8 -7 -15 -15 -15 -8 0 -15 -7 -15 -15
0 -8 -7 -15 -15 -15 -8 0 -15 -7 -15 -15 0 -8 -7 -15 -15 -15 -8 0 -15 -9 -15
-20 0 -16 7 -20 30 -20 20 0 30 -5 30 -15 0 -8 6 -15 14 -15 8 0 16 -4 18 -8
2 -5 15 -12 31 -16 20 -5 27 -3 27 9 0 8 -7 15 -15 15 -8 0 -15 7 -15 15 0 8
-7 15 -15 15 -10 0 -15 10 -15 29 0 25 5 31 30 36 17 4 30 13 30 21 0 8 7 14
15 14 8 0 15 7 15 15 0 8 9 15 20 15 10 0 34 16 53 35 19 19 39 35 46 35 6 0
11 4 11 9 0 5 14 12 30 16 17 4 30 13 30 21 0 8 9 14 20 14 11 0 20 4 20 10 0
5 12 13 27 16 15 4 34 13 41 21 7 7 27 13 43 13 19 0 29 5 29 15 0 10 11 15
35 15 24 0 35 5 35 15 0 11 12 15 49 15 34 0 55 6 67 17 15 16 42 17 257 16
208 -1 241 -3 249 -17 7 -12 24 -16 68 -16 47 0 60 -3 60 -15 0 -10 11 -15 35
-15 24 0 35 -5 35 -15 0 -10 10 -15 30 -15 20 0 30 -5 30 -15 0 -9 9 -15 25
-15 14 0 28 -6 31 -14 3 -8 19 -18 35 -21 16 -4 29 -13 29 -21 0 -8 7 -14 15
-14 8 0 15 -7 15 -15 0 -8 7 -15 15 -15 8 0 15 -7 15 -15 0 -8 7 -15 15 -15 8
0 15 -7 15 -15 0 -8 7 -15 15 -15 8 0 15 -7 15 -15 0 -8 6 -15 14 -15 8 0 17
-13 21 -30 4 -16 13 -30 21 -30 8 0 14 -7 14 -15 0 -8 7 -15 15 -15 8 0 15 -9
15 -20 0 -11 7 -20 15 -20 10 0 15 -10 15 -29 0 -16 6 -36 14 -43 7 -8 17 -29
21 -46 3 -18 10 -32 15 -32 4 0 10 -22 14 -50 4 -27 11 -50 16 -50 5 0 12 -26
16 -57 4 -32 12 -61 18 -65 6 -4 12 -41 14 -82 3 -54 8 -76 17 -76 7 0 15 -5
17 -11 2 -6 28 -14 58 -17 32 -3 60 -11 66 -20 7 -9 18 -12 32 -8 32 10 27 26
-8 26 l-30 0 0 80 c0 64 -3 80 -15 80 -11 0 -15 12 -15 45 0 33 -4 45 -15 45
-11 0 -15 12 -15 45 0 33 -4 45 -15 45 -10 0 -15 10 -15 30 0 17 -6 33 -14 36
-8 3 -18 19 -21 35 -4 16 -11 29 -16 29 -5 0 -9 7 -9 15 0 8 -6 15 -14 15 -8
0 -17 13 -21 29 -3 16 -13 32 -21 35 -8 3 -14 12 -14 21 0 8 -7 15 -15 15 -8
0 -15 7 -15 15 0 8 -7 15 -15 15 -8 0 -15 7 -15 15 0 8 -7 15 -15 15 -10 0
-15 10 -15 30 0 23 -5 30 -19 30 -11 0 -26 7 -35 15 -8 8 -19 15 -25 15 -6 0
-11 7 -11 15 0 8 -7 15 -15 15 -8 0 -15 7 -15 15 0 8 -7 15 -15 15 -9 0 -18 7
-21 15 -4 8 -12 15 -20 15 -8 0 -14 6 -14 14 0 8 -13 17 -30 21 -16 4 -30 13
-30 21 0 9 -11 14 -30 14 -20 0 -30 5 -30 15 0 10 -10 15 -30 15 -20 0 -30 5
-30 15 0 10 -11 15 -35 15 -24 0 -35 5 -35 15 0 12 -13 15 -60 15 -47 0 -60 3
-60 15 0 12 -17 15 -95 15 -78 0 -95 3 -95 15 0 13 -22 15 -139 15 -102 0
-140 -3 -143 -12z"/>
<path d="M1500 4411 c0 -5 -22 -11 -50 -15 -27 -4 -50 -11 -50 -16 0 -5 -12
-13 -27 -16 -15 -4 -34 -13 -41 -21 -7 -7 -22 -13 -33 -13 -10 0 -19 -7 -19
-15 0 -8 -7 -15 -15 -15 -8 0 -15 -7 -15 -15 0 -10 -10 -15 -30 -15 -20 0 -30
-5 -30 -15 0 -8 -7 -15 -15 -15 -8 0 -15 -7 -15 -15 0 -9 -7 -18 -15 -21 -8
-4 -15 -12 -15 -20 0 -8 -9 -22 -20 -31 -11 -10 -20 -23 -20 -30 0 -7 -7 -13
-15 -13 -9 0 -15 -9 -15 -24 0 -13 -7 -26 -15 -30 -9 -3 -15 -18 -15 -36 0
-20 -5 -30 -15 -30 -10 0 -15 -11 -15 -35 0 -24 -5 -35 -15 -35 -12 0 -15 -13
-15 -60 0 -47 -3 -60 -15 -60 -11 0 -15 -12 -15 -45 l0 -45 45 0 45 0 0 49 c0
31 6 55 15 65 8 8 15 26 15 41 0 14 6 28 14 31 8 3 18 19 21 35 4 16 10 29 15
29 4 0 11 12 14 26 4 15 20 38 37 53 16 14 29 31 29 38 0 7 4 13 10 13 5 0 12
11 16 25 3 14 12 25 20 25 8 0 14 7 14 15 0 8 6 15 13 15 15 0 57 44 57 59 0
6 11 11 25 11 16 0 25 6 25 15 0 8 7 15 15 15 9 0 18 7 21 15 4 8 12 15 20 15
8 0 14 6 14 14 0 8 14 17 30 21 17 4 30 10 30 15 0 4 12 11 27 15 15 3 31 11
34 17 4 6 27 13 53 15 74 9 53 23 -34 23 -44 0 -80 -4 -80 -9z"/>
<path d="M4120 3755 c0 -10 11 -15 35 -15 23 0 35 -5 35 -14 0 -8 16 -16 42
-19 24 -3 44 -11 46 -16 2 -6 10 -11 18 -11 8 0 14 -6 14 -14 0 -8 14 -17 30
-21 17 -4 30 -11 30 -16 0 -5 8 -13 18 -16 9 -4 27 -17 39 -30 12 -13 27 -23
33 -23 5 0 10 -6 10 -14 0 -8 14 -17 30 -21 17 -4 30 -13 30 -21 0 -8 7 -14
15 -14 8 0 15 -6 15 -13 0 -7 9 -20 20 -30 11 -9 20 -24 20 -32 0 -8 7 -15 15
-15 8 0 15 -6 15 -14 0 -8 7 -16 15 -20 8 -3 15 -12 15 -21 0 -8 4 -15 9 -15
5 0 12 -13 16 -30 4 -16 13 -30 21 -30 10 0 14 -13 14 -45 0 -33 4 -45 15 -45
10 0 15 -11 15 -35 0 -23 5 -35 13 -35 11 0 15 -31 20 -131 7 -163 -1 -269
-19 -269 -10 0 -14 -16 -14 -60 0 -47 -3 -60 -15 -60 -8 0 -15 -9 -15 -19 0
-11 -7 -26 -15 -35 -8 -8 -15 -22 -15 -30 0 -9 -6 -16 -14 -16 -8 0 -17 -13
-21 -30 -4 -17 -11 -30 -16 -30 -5 0 -9 -7 -9 -15 0 -8 -6 -15 -14 -15 -7 0
-16 -9 -19 -20 -3 -11 -12 -20 -21 -20 -9 0 -16 -7 -16 -15 0 -8 -7 -15 -15
-15 -8 0 -15 -4 -15 -10 0 -5 -7 -10 -15 -10 -8 0 -15 -9 -15 -20 0 -11 -7
-20 -15 -20 -8 0 -15 -7 -15 -15 0 -8 -9 -15 -20 -15 -11 0 -20 -7 -20 -15 0
-8 -7 -15 -15 -15 -8 0 -15 -7 -15 -15 0 -10 -10 -15 -30 -15 -20 0 -30 -5
-30 -15 0 -9 -9 -15 -22 -15 -39 0 -68 -12 -68 -26 0 -9 -12 -14 -35 -14 -19
0 -35 -4 -35 -10 0 -5 -12 -13 -27 -16 -16 -4 -31 -11 -34 -16 -3 -6 -53 -12
-110 -15 -59 -3 -107 -11 -111 -17 -11 -17 -540 -15 -546 2 -6 18 -42 15 -42
-4 0 -14 -8 -15 -57 -9 -32 4 -59 11 -61 16 -5 14 -70 11 -76 -3 -5 -10 -7
-10 -12 0 -4 9 -47 12 -164 12 -118 0 -159 -3 -163 -12 -3 -10 -95 -13 -417
-13 -322 0 -414 3 -418 13 -5 15 -442 18 -442 2 0 -6 -43 -10 -110 -10 -61 0
-110 4 -110 9 0 5 -67 11 -150 13 -96 2 -153 7 -158 14 -4 6 -31 13 -61 16
-29 3 -56 10 -60 15 -3 5 -19 13 -36 17 -16 4 -33 12 -36 18 -3 5 -25 12 -48
15 -25 4 -41 11 -41 19 0 8 -7 14 -16 14 -8 0 -22 7 -30 15 -9 8 -24 15 -35
15 -10 0 -19 7 -19 15 0 8 -7 15 -15 15 -8 0 -15 7 -15 15 0 8 -7 15 -15 15
-8 0 -15 7 -15 15 0 8 -7 15 -15 15 -8 0 -15 7 -15 15 0 8 -6 15 -14 15 -8 0
-17 15 -20 35 -4 21 -13 35 -21 35 -8 0 -15 7 -15 15 0 8 -4 15 -9 15 -5 0
-12 14 -16 30 -4 17 -10 30 -14 30 -5 0 -11 19 -14 41 -3 23 -11 46 -19 50 -8
5 -14 36 -16 83 -2 42 -8 76 -12 76 -16 0 -22 54 -7 65 12 8 16 39 19 128 2
71 7 121 14 125 6 4 14 25 18 47 5 22 12 43 18 46 5 3 12 25 15 48 4 25 11 41
19 41 8 0 14 9 14 20 0 11 4 20 10 20 5 0 12 11 16 25 3 14 12 25 20 25 9 0
14 11 14 30 0 18 5 30 13 30 16 0 47 36 47 55 0 8 7 15 15 15 8 0 15 7 15 15
0 8 7 15 15 15 8 0 15 7 15 15 0 8 7 15 15 15 9 0 18 7 21 15 4 8 12 15 20 15
8 0 14 6 14 14 0 8 14 17 30 21 17 4 30 13 30 21 0 8 7 14 16 14 8 0 22 7 30
15 9 8 24 15 35 15 10 0 19 5 19 10 0 6 -13 10 -30 10 -20 0 -30 -5 -30 -15 0
-10 -11 -15 -35 -15 -24 0 -35 -5 -35 -15 0 -10 -10 -15 -30 -15 -20 0 -30 -5
-30 -15 0 -8 -7 -15 -16 -15 -8 0 -22 -7 -30 -15 -9 -8 -24 -15 -35 -15 -10 0
-19 -7 -19 -15 0 -8 -7 -15 -15 -15 -8 0 -15 -7 -15 -15 0 -8 -7 -15 -15 -15
-8 0 -15 -7 -15 -15 0 -8 -7 -15 -15 -15 -8 0 -15 -7 -15 -15 0 -8 -7 -15 -15
-15 -8 0 -15 -7 -15 -15 0 -8 -7 -15 -15 -15 -8 0 -15 -7 -15 -15 0 -8 -7 -15
-15 -15 -8 0 -15 -7 -15 -15 0 -9 -7 -18 -15 -21 -8 -4 -15 -12 -15 -20 0 -8
-9 -22 -20 -31 -11 -10 -20 -23 -20 -30 0 -7 -4 -13 -10 -13 -5 0 -12 -16 -16
-35 -3 -20 -12 -35 -20 -35 -10 0 -14 -13 -14 -45 0 -33 -4 -45 -15 -45 -12 0
-15 -13 -15 -60 0 -44 -4 -60 -14 -60 -10 0 -14 -28 -18 -117 -8 -169 1 -323
18 -323 10 0 14 -16 14 -60 0 -47 3 -60 15 -60 10 0 15 -11 15 -35 0 -24 5
-35 15 -35 10 0 15 -10 15 -30 0 -20 5 -30 15 -30 10 0 15 -10 15 -30 0 -19 5
-30 14 -30 8 0 17 -13 21 -29 3 -16 13 -32 21 -35 8 -3 14 -10 14 -16 0 -7 14
-25 30 -42 17 -16 30 -38 30 -49 0 -10 7 -19 15 -19 8 0 15 -7 15 -15 0 -8 7
-15 15 -15 8 0 15 -7 15 -15 0 -10 10 -15 30 -15 20 0 30 -5 30 -15 0 -8 7
-15 15 -15 8 0 15 -7 15 -15 0 -8 7 -15 15 -15 9 0 18 -6 21 -14 3 -8 19 -18
35 -21 16 -4 29 -10 29 -15 0 -5 14 -11 30 -15 17 -4 30 -13 30 -21 0 -9 11
-14 29 -14 16 0 31 -6 35 -15 4 -10 20 -15 51 -15 33 0 45 -4 45 -15 0 -12 20
-15 120 -15 99 0 120 -3 120 -15 0 -12 120 -15 922 -17 726 -2 922 -6 926 -15
3 -10 99 -13 437 -13 376 0 434 2 439 15 4 12 26 15 111 15 87 0 105 3 105 15
0 11 12 15 50 15 38 0 50 4 50 15 0 11 12 15 45 15 33 0 45 4 45 15 0 8 9 15
19 15 11 0 26 7 34 15 8 7 26 17 40 20 14 4 28 13 31 21 3 8 12 14 21 14 8 0
15 4 15 9 0 5 14 12 30 16 17 4 30 13 30 21 0 8 7 14 15 14 8 0 15 7 15 15 0
8 7 15 15 15 8 0 15 7 15 15 0 8 9 15 20 15 11 0 20 7 20 15 0 8 7 15 15 15 8
0 15 7 15 15 0 8 7 15 15 15 8 0 15 7 15 15 0 8 7 15 15 15 8 0 15 6 15 14 0
8 7 16 15 20 8 3 15 12 15 21 0 8 7 15 15 15 10 0 15 10 15 30 0 20 5 30 15
30 8 0 15 7 15 15 0 8 7 15 15 15 10 0 15 10 15 30 0 20 5 30 15 30 10 0 15
10 15 30 0 16 6 33 13 37 8 4 17 26 20 47 4 22 10 42 16 45 5 3 12 33 16 66 4
33 13 63 19 67 15 10 15 326 0 336 -6 4 -14 32 -16 62 -3 30 -10 56 -16 58 -7
2 -14 26 -18 53 -4 32 -11 49 -20 49 -9 0 -14 11 -14 30 0 20 -5 30 -15 30
-10 0 -15 10 -15 30 0 20 -5 30 -15 30 -10 0 -15 10 -15 30 0 20 -5 30 -15 30
-8 0 -15 9 -15 20 0 11 -7 20 -15 20 -8 0 -15 7 -15 15 0 8 -9 23 -20 32 -11
10 -20 23 -20 30 0 7 -7 13 -15 13 -8 0 -15 7 -15 15 0 8 -7 15 -15 15 -8 0
-15 7 -15 15 0 8 -7 15 -15 15 -8 0 -15 7 -15 15 0 8 -7 15 -15 15 -8 0 -15 7
-15 15 0 10 -10 15 -30 15 -20 0 -30 5 -30 15 0 8 -7 15 -15 15 -8 0 -15 6
-15 14 0 8 -13 17 -29 21 -16 3 -32 13 -35 21 -3 8 -10 14 -16 14 -6 0 -18 7
-26 15 -9 8 -24 15 -35 15 -10 0 -19 7 -19 15 0 11 -12 15 -45 15 -33 0 -45 4
-45 15 0 11 -12 15 -50 15 -38 0 -50 -4 -50 -15z"/>
<path d="M1118 1643 c-10 -3 -18 -9 -18 -14 0 -5 -7 -9 -15 -9 -9 0 -18 -6
-21 -14 -3 -8 -19 -18 -35 -21 -16 -4 -29 -13 -29 -21 0 -8 -9 -14 -20 -14
-11 0 -20 -4 -20 -10 0 -5 -11 -12 -25 -16 -14 -3 -25 -12 -25 -20 0 -9 -11
-14 -30 -14 -20 0 -30 -5 -30 -15 0 -8 -9 -15 -20 -15 -11 0 -20 -7 -20 -15 0
-10 -10 -15 -30 -15 -20 0 -30 -5 -30 -15 0 -8 -7 -15 -15 -15 -8 0 -15 -7
-15 -15 0 -8 -7 -15 -15 -15 -8 0 -15 -6 -15 -13 0 -7 -14 -25 -31 -39 -20
-18 -32 -40 -36 -65 -3 -21 -10 -41 -16 -44 -13 -9 -13 -139 0 -147 6 -4 14
-22 18 -39 3 -19 13 -33 21 -33 8 0 14 -7 14 -15 0 -8 7 -15 15 -15 8 0 15 -6
15 -14 0 -8 12 -17 27 -21 15 -3 31 -12 35 -18 10 -16 206 -16 216 0 4 6 20
15 35 18 15 4 27 13 27 21 0 8 7 14 15 14 8 0 15 7 15 15 0 8 6 15 14 15 8 0
17 14 21 30 4 17 10 30 15 30 5 0 12 15 15 33 4 17 13 35 19 39 6 4 12 44 15
90 2 47 8 86 15 90 7 5 12 56 14 145 2 89 8 140 15 145 6 4 8 11 3 15 -5 4
-11 2 -13 -4 -3 -7 -11 -13 -18 -13 -9 0 -16 -18 -21 -47 -4 -27 -11 -51 -16
-54 -5 -3 -11 -23 -15 -45 -3 -21 -11 -42 -16 -45 -5 -4 -12 -31 -15 -60 -3
-30 -11 -58 -18 -62 -9 -5 -14 -25 -14 -52 0 -33 -4 -45 -15 -45 -8 0 -15 -9
-15 -21 0 -19 -4 -20 -72 -13 -40 4 -74 11 -76 15 -2 5 -19 11 -38 15 -19 3
-34 12 -34 20 0 8 -7 14 -16 14 -14 0 -16 9 -12 53 5 56 26 89 66 101 11 4 23
13 26 21 3 8 12 15 21 15 8 0 15 7 15 15 0 8 7 15 15 15 8 0 15 7 15 15 0 8 7
15 15 15 8 0 15 7 15 15 0 8 7 15 15 15 8 0 15 7 15 15 0 8 9 15 19 15 11 0
26 7 35 15 8 8 19 15 25 15 6 0 11 7 11 15 0 8 6 15 14 15 7 0 16 10 19 21 5
17 11 20 31 15 21 -5 46 8 35 18 -9 7 -55 13 -71 9z"/>
<path d="M4190 1595 c0 -8 -7 -15 -16 -15 -8 0 -22 -7 -30 -15 -9 -8 -24 -15
-35 -15 -10 0 -19 -7 -19 -15 0 -8 -7 -15 -15 -15 -8 0 -15 -7 -15 -15 0 -10
-10 -15 -30 -15 -20 0 -30 -5 -30 -15 0 -8 -9 -15 -19 -15 -11 0 -26 -6 -33
-13 -7 -7 -21 -16 -30 -20 -10 -3 -18 -11 -18 -16 0 -5 -11 -12 -25 -15 -31
-8 -65 -36 -65 -53 0 -7 -7 -13 -15 -13 -8 0 -15 -7 -15 -15 0 -8 -7 -15 -15
-15 -8 0 -15 -7 -15 -15 0 -8 -7 -15 -15 -15 -10 0 -15 -10 -15 -30 0 -18 -6
-33 -15 -36 -12 -5 -15 -25 -15 -95 0 -49 4 -89 9 -89 5 0 12 -14 16 -30 4
-16 13 -30 21 -30 8 0 14 -7 14 -15 0 -8 7 -15 15 -15 8 0 15 -6 15 -14 0 -8
12 -17 27 -21 15 -3 31 -12 35 -18 5 -8 43 -12 111 -12 85 0 107 3 121 18 10
9 24 17 32 17 8 0 14 7 14 15 0 8 7 15 15 15 8 0 15 7 15 15 0 8 6 15 14 15 8
0 17 14 21 30 4 17 13 30 21 30 9 0 14 11 14 35 0 24 5 35 15 35 12 0 15 17
15 90 0 73 3 90 15 90 13 0 15 23 15 145 0 122 -2 145 -15 145 -11 0 -15 -12
-15 -50 0 -38 -4 -50 -15 -50 -10 0 -15 -10 -15 -34 0 -19 -6 -41 -13 -48 -8
-7 -16 -33 -20 -57 -3 -24 -10 -47 -15 -50 -5 -3 -11 -30 -14 -60 -4 -35 -11
-57 -22 -63 -9 -5 -16 -16 -16 -24 0 -13 -11 -14 -72 -8 -40 4 -75 10 -78 15
-3 4 -18 11 -33 14 -15 4 -27 13 -27 21 0 8 -7 14 -15 14 -11 0 -15 12 -15 50
0 28 4 50 10 50 5 0 12 11 16 24 4 17 15 27 35 31 16 4 29 13 29 21 0 8 7 14
15 14 8 0 15 5 15 10 0 6 7 10 15 10 8 0 15 7 15 15 0 8 6 15 13 15 7 0 20 9
30 20 9 11 24 20 32 20 8 0 15 7 15 15 0 8 7 15 15 15 8 0 15 7 15 15 0 8 7
15 15 15 9 0 18 7 21 15 4 8 12 15 20 15 8 0 14 7 14 15 0 10 10 15 30 15 20
0 30 5 30 15 0 11 -12 15 -45 15 -33 0 -45 -4 -45 -15z"/>
<path d="M2720 1475 c0 -10 -10 -15 -30 -15 -20 0 -30 -5 -30 -15 0 -8 -9 -15
-19 -15 -11 0 -26 -7 -35 -15 -8 -8 -22 -15 -30 -15 -9 0 -16 -6 -16 -14 0 -8
-13 -17 -30 -21 -16 -4 -30 -10 -30 -15 0 -5 -13 -11 -30 -15 -16 -4 -30 -13
-30 -21 0 -8 -9 -14 -20 -14 -11 0 -20 -7 -20 -15 0 -9 -9 -15 -25 -15 -16 0
-25 -6 -25 -15 0 -8 -7 -15 -15 -15 -8 0 -15 -6 -15 -14 0 -7 -9 -16 -20 -19
-14 -3 -20 -14 -20 -31 0 -16 -6 -26 -15 -26 -8 0 -15 -9 -15 -20 0 -11 -6
-20 -14 -20 -9 0 -15 -19 -19 -62 -7 -83 2 -158 19 -158 9 0 14 -11 14 -30 0
-20 5 -30 15 -30 8 0 15 -7 15 -15 0 -8 7 -15 15 -15 8 0 15 -7 15 -15 0 -8 7
-15 15 -15 8 0 15 -7 15 -15 0 -11 12 -15 50 -15 38 0 50 -4 50 -15 0 -10 10
-15 30 -15 20 0 30 5 30 15 0 11 12 15 45 15 33 0 45 4 45 15 0 8 9 15 20 15
11 0 20 7 20 15 0 8 7 15 15 15 8 0 15 7 15 15 0 8 7 15 15 15 8 0 15 9 15 20
0 11 7 20 15 20 10 0 15 10 15 30 0 20 5 30 15 30 11 0 15 12 15 50 0 36 4 50
14 50 11 0 15 24 18 117 2 82 7 118 16 121 8 2 12 31 12 98 0 77 -3 94 -15 94
-8 0 -15 7 -15 15 0 10 -10 15 -30 15 -20 0 -30 -5 -30 -15z m60 -45 c0 -20
-5 -30 -15 -30 -11 0 -15 -12 -15 -50 0 -36 -4 -50 -14 -50 -9 0 -15 -17 -18
-56 -3 -31 -9 -59 -15 -62 -6 -4 -13 -33 -17 -64 -4 -32 -11 -58 -16 -58 -4 0
-11 -16 -14 -35 -4 -21 -13 -35 -21 -35 -8 0 -15 -7 -15 -15 0 -8 -4 -15 -10
-15 -5 0 -10 7 -10 15 0 12 -14 15 -65 15 -51 0 -65 3 -65 15 0 8 -6 15 -13
15 -14 0 -47 35 -47 50 0 6 -7 13 -15 16 -16 7 -21 34 -6 34 5 0 12 14 16 30
4 17 13 30 21 30 8 0 14 7 14 15 0 8 7 15 15 15 8 0 15 7 15 15 0 10 10 15 30
15 20 0 30 5 30 15 0 8 7 15 15 15 8 0 15 7 15 15 0 8 7 15 15 15 8 0 15 7 15
15 0 8 5 15 11 15 15 0 119 104 119 119 0 6 14 11 30 11 27 0 30 -3 30 -30z"/>
<path d="M1780 881 c0 -5 -13 -12 -30 -16 -16 -4 -30 -13 -30 -21 0 -8 -7 -14
-15 -14 -8 0 -15 -4 -15 -9 0 -5 -13 -12 -29 -16 -16 -3 -32 -13 -35 -21 -3
-8 -17 -14 -31 -14 -16 0 -25 -6 -25 -15 0 -8 -9 -15 -20 -15 -11 0 -20 -7
-20 -15 0 -10 -10 -15 -30 -15 -20 0 -30 -5 -30 -15 0 -8 -7 -15 -15 -15 -9 0
-18 -7 -21 -15 -4 -8 -12 -15 -19 -15 -21 0 -105 -89 -105 -111 0 -10 -7 -19
-15 -19 -10 0 -15 -10 -15 -30 0 -20 -5 -30 -15 -30 -12 0 -15 -17 -15 -90 0
-73 3 -90 15 -90 8 0 15 -9 15 -20 0 -11 6 -20 14 -20 8 0 17 -14 21 -30 5
-23 12 -30 31 -30 14 0 24 -6 24 -14 0 -8 15 -17 35 -20 19 -4 35 -11 35 -16
0 -6 34 -10 75 -10 41 0 75 4 75 9 0 5 13 11 29 14 34 7 71 35 71 54 0 7 7 13
15 13 8 0 15 7 15 15 0 8 7 15 15 15 10 0 15 10 15 30 0 20 5 30 15 30 10 0
15 10 15 30 0 19 5 30 14 30 9 0 15 22 20 77 3 42 10 79 15 83 11 6 19 305 9
316 -13 12 -20 -2 -25 -51 -4 -29 -10 -45 -19 -45 -10 0 -14 -14 -14 -50 0
-38 -4 -50 -15 -50 -12 0 -15 -13 -15 -60 0 -47 -3 -60 -15 -60 -11 0 -15 -12
-15 -45 0 -30 -5 -47 -14 -51 -8 -3 -17 -16 -20 -30 -5 -19 -13 -24 -36 -24
-17 0 -30 4 -30 9 0 4 -26 11 -57 14 -32 3 -59 11 -61 17 -2 5 -10 10 -18 10
-8 0 -14 9 -14 20 0 11 -7 20 -15 20 -11 0 -15 12 -15 45 0 33 4 45 15 45 8 0
15 7 15 15 0 8 7 15 15 15 8 0 15 7 15 15 0 8 6 15 13 15 7 0 20 9 30 20 9 11
24 20 32 20 8 0 15 7 15 15 0 8 6 15 14 15 8 0 16 7 20 15 3 8 12 15 21 15 8
0 15 7 15 15 0 8 7 15 15 15 8 0 15 7 15 15 0 8 7 15 15 15 8 0 15 7 15 15 0
8 7 15 15 15 8 0 15 7 15 15 0 8 6 15 14 15 7 0 16 9 19 20 3 14 14 20 31 20
14 0 26 5 26 10 0 6 -13 10 -30 10 -16 0 -30 -4 -30 -9z"/>
<path d="M3500 821 c0 -5 -13 -12 -30 -16 -16 -4 -30 -13 -30 -21 0 -9 -11
-14 -30 -14 -20 0 -30 -5 -30 -15 0 -8 -9 -15 -20 -15 -11 0 -20 -7 -20 -15 0
-10 -10 -15 -30 -15 -20 0 -30 -5 -30 -15 0 -10 -10 -15 -30 -15 -20 0 -30 -5
-30 -15 0 -8 -7 -15 -15 -15 -9 0 -18 -7 -21 -15 -4 -8 -12 -15 -20 -15 -8 0
-22 -9 -31 -20 -10 -11 -23 -20 -30 -20 -7 0 -13 -7 -13 -15 0 -8 -7 -15 -15
-15 -8 0 -15 -7 -15 -15 0 -8 -7 -15 -15 -15 -8 0 -15 -7 -15 -15 0 -8 -7 -15
-15 -15 -10 0 -15 -10 -15 -30 0 -20 -5 -30 -15 -30 -10 0 -15 -10 -15 -30 0
-18 -6 -33 -15 -36 -17 -7 -21 -60 -4 -66 5 -2 13 -22 16 -46 3 -26 11 -42 19
-42 9 0 14 -11 14 -30 0 -20 5 -30 15 -30 8 0 15 -7 15 -15 0 -8 7 -15 15 -15
8 0 15 -6 15 -14 0 -8 14 -18 33 -21 17 -4 35 -13 39 -19 10 -15 166 -15 176
0 4 6 18 15 32 19 13 4 35 21 49 36 14 16 31 29 38 29 8 0 13 12 13 30 0 20 5
30 15 30 8 0 15 7 15 15 0 8 7 15 15 15 12 0 15 14 15 65 0 49 3 65 14 65 11
0 15 25 18 122 2 86 7 123 16 126 8 2 12 30 12 93 0 72 -3 89 -15 89 -8 0 -15
7 -15 15 0 8 -7 15 -15 15 -8 0 -15 -4 -15 -9z m30 -66 c0 -33 -4 -45 -15 -45
-11 0 -15 -12 -15 -45 0 -33 -4 -45 -15 -45 -11 0 -15 -12 -15 -50 0 -36 -4
-50 -14 -50 -9 0 -15 -17 -18 -56 -3 -31 -9 -59 -15 -62 -5 -4 -13 -20 -17
-35 -10 -42 -40 -70 -65 -62 -12 3 -21 11 -21 16 0 5 -19 9 -42 9 -57 0 -88 9
-88 26 0 8 -6 14 -14 14 -8 0 -17 13 -21 30 -4 16 -11 30 -16 30 -5 0 -9 7 -9
15 0 8 4 15 9 15 5 0 12 13 16 29 4 20 14 31 31 35 13 4 24 11 24 16 0 6 9 10
20 10 11 0 20 7 20 15 0 8 7 15 15 15 8 0 15 7 15 15 0 8 5 15 11 15 7 0 27
16 46 35 19 19 40 35 48 35 8 0 15 7 15 15 0 8 7 15 15 15 8 0 15 7 15 15 0 8
9 15 20 15 11 0 20 7 20 15 0 8 7 15 15 15 8 0 15 7 15 15 0 8 7 15 15 15 11
0 15 -12 15 -45z"/>
</g>
</svg>
